<svg
                width="16"
                height="16"
                viewBox="0 0 16 16"
                fill="none"
                xmlns="http://www.w3.org/2000/svg"
              >
                <path
                  fill-rule="evenodd"
                  clip-rule="evenodd"
                  d="M10.6593 2.54817C11.4305 1.77691 12.681 1.77691 13.4522 2.54817C14.2235 3.31943 14.2235 4.56989 13.4522 5.34114L5.03559 13.7578C4.92307 13.8703 4.77046 13.9335 4.61133 13.9335H2.66689C2.33552 13.9335 2.06689 13.6649 2.06689 13.3335V11.3891C2.06689 11.23 2.13011 11.0774 2.24263 10.9648L10.6593 2.54817ZM12.6037 3.3967C12.3011 3.09407 11.8104 3.09407 11.5078 3.3967L3.26689 11.6376V12.7335H4.3628L12.6037 4.49261C12.9063 4.18999 12.9063 3.69933 12.6037 3.3967Z"
                  fill="#5A5C63"
                />
              </svg>