<svg xmlns="http://www.w3.org/2000/svg" width="36" height="36" viewBox="0 0 36 36" fill="none">
  <rect width="36" height="36" fill="white"/>
  <path d="M21.5752 13.5801C21.3178 11.947 23.5049 11.1597 24.3477 12.582L27.4658 17.8457L28.4941 15.8848C29.494 13.9763 32.3782 14.6479 32.4316 16.8018C32.5324 20.8609 30.9639 24.7841 28.0928 27.6553L27.666 28.0811C24.7876 30.9594 20.8546 32.5317 16.7852 32.4307C14.6287 32.3768 13.9529 29.491 15.8613 28.4854L17.9004 27.4121L12.6074 24.3145C11.1805 23.4792 11.9564 21.2882 13.5908 21.5371L17.9004 22.1943L14.6279 17.2275C13.4947 15.5073 15.5261 13.4654 17.252 14.5898L22.248 17.8457L21.5752 13.5801ZM8.24805 4.40918C8.34872 3.86349 9.13176 3.86349 9.23242 4.40918L9.92188 8.15723C9.95949 8.36101 10.1195 8.51995 10.3232 8.55762L14.0713 9.24805C14.6169 9.34875 14.6169 10.1317 14.0713 10.2324L10.3232 10.9219C10.1194 10.9595 9.95949 11.1194 9.92188 11.3232L9.23242 15.0713C9.13173 15.6169 8.34875 15.6169 8.24805 15.0713L7.55762 11.3232C7.51995 11.1195 7.36101 10.9595 7.15723 10.9219L3.40918 10.2324C2.86349 10.1318 2.86349 9.34872 3.40918 9.24805L7.15723 8.55762C7.36092 8.51995 7.51995 8.36092 7.55762 8.15723L8.24805 4.40918Z" fill="url(#paint0_radial_279_68)"/>
  <defs>
    <radialGradient id="paint0_radial_279_68" cx="0" cy="0" r="1" gradientTransform="matrix(13.6243 13.6247 -13.6243 13.6241 16.3808 17.3805)" gradientUnits="userSpaceOnUse">
      <stop stop-color="#4F95FF"/>
      <stop offset="0.27707" stop-color="#5698F8"/>
      <stop offset="0.518714" stop-color="#75A7D9"/>
      <stop offset="1" stop-color="#FFEA4F"/>
    </radialGradient>
  </defs>
</svg>