<svg width="20" height="20" viewBox="0 0 20 20" fill="currentColor" xmlns="http://www.w3.org/2000/svg">
<path fill-rule="evenodd" clip-rule="evenodd" d="M5.8839 3.50358C3.52785 3.50358 1.60711 5.50759 1.71078 7.79173L1.71164 7.81061V7.82951C1.71164 9.7649 2.83722 11.8032 4.56753 13.6836C6.16366 15.4182 8.18488 16.9193 9.99985 17.9521C11.8152 16.9194 13.8364 15.4208 15.4323 13.6877C17.1621 11.8092 18.288 9.77082 18.288 7.82942V7.81052L18.2888 7.79165C18.3925 5.50754 16.4717 3.50358 14.1157 3.50358C12.6896 3.50358 11.4341 4.204 10.6804 5.27085L9.99981 6.2343L9.31918 5.27085C8.56551 4.204 7.30996 3.50358 5.8839 3.50358ZM0.0449951 7.84828C-0.0914347 4.60036 2.60713 1.83691 5.8839 1.83691C7.48766 1.83691 8.9429 2.47539 9.99981 3.51033C11.0567 2.47539 12.5119 1.83691 14.1157 1.83691C17.3924 1.83691 20.091 4.6003 19.9546 7.8482C19.9475 10.3998 18.4949 12.8222 16.6583 14.8167C14.8005 16.8342 12.4429 18.5318 10.3961 19.6381L9.99981 19.8523L9.60357 19.6381C7.55629 18.5316 5.19868 16.8309 3.34109 14.8122C1.50498 12.8168 0.0521068 10.3944 0.0449951 7.84828Z" fill="#C2C4C8"/>
</svg>
